<svg width="196" height="196" viewBox="0 0 196 196" fill="none" xmlns="http://www.w3.org/2000/svg">
<path d="M97.9999 16.3335C53.0832 16.3335 16.3333 53.0835 16.3333 98.0002C16.3333 142.917 53.0832 179.667 97.9999 179.667C142.917 179.667 179.667 142.917 179.667 98.0002C179.667 53.0835 142.917 16.3335 97.9999 16.3335ZM97.9999 163.333C61.9849 163.333 32.6666 134.015 32.6666 98.0002C32.6666 61.9852 61.9849 32.6668 97.9999 32.6668C134.015 32.6668 163.333 61.9852 163.333 98.0002C163.333 134.015 134.015 163.333 97.9999 163.333ZM135.485 61.9035L81.6666 115.722L60.5149 94.6518L48.9999 106.167L81.6666 138.833L147 73.5002L135.485 61.9035Z" fill="#5E5DF0"/>
</svg>
